<svg width="22" height="20" viewBox="0 0 22 20" fill="none" xmlns="http://www.w3.org/2000/svg">
<g clip-path="url(#clip0_813_15865)">
<path d="M13.5579 17.2485H9.23451V11.7101C9.23451 11.3247 9.49424 11.0733 9.87967 11.0733H12.9211C13.3066 11.0733 13.5579 11.3247 13.5579 11.7101V17.2485ZM4.01456 16.7458C4.01456 17.9104 4.71837 18.5975 5.89977 18.5975H16.9178C18.0992 18.5975 18.7946 17.9104 18.7946 16.7458V10.1098L11.9073 4.33683C11.5889 4.06871 11.2118 4.07709 10.9019 4.33683L4.01456 10.1098V16.7458ZM1.40039 9.2719C1.40039 9.61543 1.66851 9.94224 2.12096 9.94224C2.35557 9.94224 2.54828 9.81654 2.72423 9.67412L11.1114 2.63595C11.2957 2.46838 11.5219 2.46838 11.7062 2.63595L20.0933 9.67412C20.2609 9.81654 20.4536 9.94224 20.6883 9.94224C21.0821 9.94224 21.4004 9.69926 21.4004 9.29704C21.4004 9.04568 21.3167 8.87811 21.1407 8.72729L12.4184 1.3959C11.7984 0.868035 11.0276 0.868035 10.3992 1.3959L1.66851 8.72729C1.48418 8.87811 1.40039 9.07919 1.40039 9.2719ZM16.6916 5.4931L18.7946 7.26939V3.39841C18.7946 3.02975 18.56 2.79515 18.1914 2.79515H17.2949C16.9346 2.79515 16.6916 3.02975 16.6916 3.39841V5.4931Z" fill="#E52534"/>
</g>
<defs>
<clipPath id="clip0_813_15865">
<rect width="21.0354" height="20" fill="white" transform="translate(0.782227)"/>
</clipPath>
</defs>
</svg>
