<svg width="21" height="20" viewBox="0 0 21 20" fill="none" xmlns="http://www.w3.org/2000/svg">
<path d="M5.11793 16.7271L17.847 3.98825L16.9161 3.05734L4.17721 15.7864L5.11793 16.7271ZM3.95183 12.7683L2.64854 14.0715C2.43297 14.2872 2.43297 14.6203 2.64854 14.8359C2.86412 15.0613 3.1973 15.0613 3.42268 14.8359L4.71616 13.5424C4.94154 13.3268 4.93174 12.9839 4.71616 12.7683C4.50058 12.5527 4.16741 12.5527 3.95183 12.7683ZM6.69558 10.0147L5.4021 11.318C5.18652 11.5335 5.18652 11.8668 5.4021 12.0922C5.61769 12.298 5.95086 12.298 6.17624 12.0922L7.46972 10.7889C7.6853 10.5733 7.67551 10.2303 7.46972 10.0147C7.25413 9.79913 6.92096 9.79913 6.69558 10.0147ZM9.44914 7.26116L8.14586 8.56445C7.93028 8.78003 7.93028 9.123 8.14586 9.33858C8.37124 9.55416 8.70441 9.55416 8.91999 9.33858L10.2233 8.03529C10.4389 7.81971 10.4389 7.47674 10.2233 7.26116C10.0077 7.04558 9.66473 7.04558 9.44914 7.26116ZM12.2027 4.50761L10.8994 5.81089C10.6838 6.02647 10.6838 6.36944 10.8994 6.58502C11.115 6.7908 11.458 6.8006 11.6735 6.58502L12.9768 5.28173C13.1924 5.06616 13.1924 4.72318 12.9768 4.50761C12.7612 4.29202 12.4183 4.29202 12.2027 4.50761ZM14.9563 1.76384L13.653 3.05734C13.4374 3.27291 13.4374 3.61589 13.653 3.83146C13.8685 4.03725 14.2115 4.04704 14.4271 3.83146L15.7304 2.52818C15.9459 2.3126 15.9459 1.97943 15.7304 1.76384C15.5148 1.53846 15.1719 1.53846 14.9563 1.76384ZM7.37173 16.1588L6.07824 17.4523C5.85286 17.6777 5.85286 18.0108 6.07824 18.2264C6.28403 18.442 6.62699 18.442 6.84258 18.2264L8.14586 16.9231C8.36144 16.7075 8.36144 16.3744 8.14586 16.1588C7.93028 15.9432 7.58731 15.9334 7.37173 16.1588ZM10.1253 13.3954L8.822 14.6987C8.60642 14.9143 8.60642 15.2573 8.822 15.4728C9.04738 15.6885 9.38056 15.6885 9.59613 15.4728L10.8994 14.1696C11.115 13.9539 11.115 13.6208 10.8994 13.3954C10.6838 13.1994 10.3409 13.1896 10.1253 13.3954ZM12.8789 10.6516L11.5756 11.9452C11.36 12.1705 11.36 12.5037 11.5756 12.7193C11.7911 12.9447 12.1341 12.9447 12.3496 12.7193L13.653 11.4258C13.8685 11.2004 13.8685 10.8673 13.653 10.6516C13.4374 10.4361 13.0944 10.4361 12.8789 10.6516ZM15.6324 7.8981L14.3291 9.20139C14.1136 9.41698 14.1233 9.75015 14.3291 9.97553C14.5447 10.1911 14.8876 10.1911 15.1033 9.97553L16.3968 8.67224C16.6222 8.45665 16.6222 8.11369 16.3968 7.8981C16.1811 7.68252 15.848 7.68252 15.6324 7.8981ZM18.386 5.14454L17.0826 6.44783C16.8671 6.66341 16.8769 7.00638 17.0826 7.22197C17.2983 7.43755 17.6412 7.43755 17.847 7.22197L19.1503 5.91868C19.3658 5.70309 19.3658 5.36013 19.1503 5.14454C18.9348 4.92897 18.6015 4.92897 18.386 5.14454ZM10.8994 0C5.44129 0 0.904297 4.5272 0.904297 9.99512C0.904297 15.4533 5.4511 19.9903 10.9092 19.9903C16.3771 19.9903 20.8946 15.4533 20.8946 9.99512C20.8946 4.5272 16.3674 0 10.8994 0ZM10.8994 1.33268C15.6324 1.33268 19.5619 5.26214 19.5619 9.99512C19.5619 14.7281 15.6422 18.6576 10.9092 18.6576C6.17624 18.6576 2.23697 14.7281 2.23697 9.99512C2.23697 5.26214 6.16643 1.33268 10.8994 1.33268Z" fill="black" fill-opacity="0.6"/>
</svg>
