<svg width="21" height="20" viewBox="0 0 21 20" fill="none" xmlns="http://www.w3.org/2000/svg">
<g clip-path="url(#clip0_813_10753)">
<path d="M3.91824 20H17.0816C19.3605 20 20.4891 18.8715 20.4891 16.636V3.38582C20.4891 1.15033 19.3605 0.0217285 17.0816 0.0217285H3.91824C1.65019 0.0217285 0.510742 1.13947 0.510742 3.38582V16.636C0.510742 18.8823 1.65019 20 3.91824 20ZM3.93995 18.2529C2.85476 18.2529 2.2579 17.6778 2.2579 16.5492V3.47263C2.2579 2.34404 2.85476 1.76889 3.93995 1.76889H17.0599C18.1343 1.76889 18.7419 2.34404 18.7419 3.47263V16.5492C18.7419 17.6778 18.1343 18.2529 17.0599 18.2529H3.93995Z" fill="black" fill-opacity="0.6"/>
<path d="M8.48655 14.2378L14.6613 10.5807C15.117 10.3202 15.1063 9.6908 14.6613 9.4195L8.48655 5.76242C8.01992 5.49112 7.40137 5.6973 7.40137 6.22905V13.7711C7.40137 14.292 7.97652 14.5416 8.48655 14.2378Z" fill="black" fill-opacity="0.6"/>
</g>
<defs>
<clipPath id="clip0_813_10753">
<rect width="19.9783" height="20" fill="white" transform="translate(0.510742)"/>
</clipPath>
</defs>
</svg>
