<svg width="21" height="20" viewBox="0 0 21 20" fill="none" xmlns="http://www.w3.org/2000/svg">
<mask id="mask0_409_15816" style="mask-type:luminance" maskUnits="userSpaceOnUse" x="1" y="0" width="19" height="20">
<path d="M7.59993 1.66663H2.59993C2.37892 1.66663 2.16696 1.75442 2.01068 1.9107C1.8544 2.06698 1.7666 2.27895 1.7666 2.49996V7.49996C1.7666 7.72097 1.8544 7.93293 2.01068 8.08921C2.16696 8.24549 2.37892 8.33329 2.59993 8.33329H7.59993C7.82095 8.33329 8.03291 8.24549 8.18919 8.08921C8.34547 7.93293 8.43327 7.72097 8.43327 7.49996V2.49996C8.43327 2.27895 8.34547 2.06698 8.18919 1.9107C8.03291 1.75442 7.82095 1.66663 7.59993 1.66663ZM7.59993 11.6666H2.59993C2.37892 11.6666 2.16696 11.7544 2.01068 11.9107C1.8544 12.067 1.7666 12.2789 1.7666 12.5V17.5C1.7666 17.721 1.8544 17.9329 2.01068 18.0892C2.16696 18.2455 2.37892 18.3333 2.59993 18.3333H7.59993C7.82095 18.3333 8.03291 18.2455 8.18919 18.0892C8.34547 17.9329 8.43327 17.721 8.43327 17.5V12.5C8.43327 12.2789 8.34547 12.067 8.18919 11.9107C8.03291 11.7544 7.82095 11.6666 7.59993 11.6666ZM17.5999 1.66663H12.5999C12.3789 1.66663 12.167 1.75442 12.0107 1.9107C11.8544 2.06698 11.7666 2.27895 11.7666 2.49996V7.49996C11.7666 7.72097 11.8544 7.93293 12.0107 8.08921C12.167 8.24549 12.3789 8.33329 12.5999 8.33329H17.5999C17.8209 8.33329 18.0329 8.24549 18.1892 8.08921C18.3455 7.93293 18.4333 7.72097 18.4333 7.49996V2.49996C18.4333 2.27895 18.3455 2.06698 18.1892 1.9107C18.0329 1.75442 17.8209 1.66663 17.5999 1.66663Z" fill="#555555" stroke="white" stroke-width="1.5" stroke-linejoin="round"/>
<path d="M11.7666 11.6666H18.4333M15.0999 15H18.4333M11.7666 18.3333H18.4333" stroke="white" stroke-width="1.5" stroke-linecap="round" stroke-linejoin="round"/>
</mask>
<g mask="url(#mask0_409_15816)">
<path d="M0.0996094 0H20.0996V20H0.0996094V0Z" fill="black" fill-opacity="0.6"/>
</g>
</svg>
