<svg width="21" height="20" viewBox="0 0 21 20" fill="none" xmlns="http://www.w3.org/2000/svg">
<path fill-rule="evenodd" clip-rule="evenodd" d="M20.7002 10C20.7002 15.525 16.2252 20 10.7002 20C5.1752 20 0.700195 15.525 0.700195 10C0.700195 4.475 5.1752 0 10.7002 0C16.2252 0 20.7002 4.475 20.7002 10ZM5.7002 17.1875C5.9002 16.855 7.8377 13.75 10.6877 13.75C13.5252 13.75 15.4752 16.8625 15.6752 17.1875C16.8375 16.3837 17.7872 15.3097 18.4426 14.0577C19.098 12.8056 19.4395 11.4132 19.4377 10C19.4377 5.1625 15.5252 1.25 10.6877 1.25C5.85019 1.25 1.9377 5.1625 1.9377 10C1.9377 12.975 3.4252 15.6125 5.7002 17.1875Z" fill="black" fill-opacity="0.6"/>
</svg>
